<?xml version="1.0" standalone="no"?>
<!DOCTYPE svg PUBLIC "-//W3C//DTD SVG 20010904//EN"
 "http://www.w3.org/TR/2001/REC-SVG-20010904/DTD/svg10.dtd">
<svg version="1.0" xmlns="http://www.w3.org/2000/svg"
 width="1152.000000pt" height="597.000000pt" viewBox="0 0 1152.000000 597.000000"
 preserveAspectRatio="xMidYMid meet">

<g transform="translate(0.000000,597.000000) scale(0.100000,-0.100000)"
fill="#000000" stroke="none">
<path d="M0 2985 l0 -2985 5760 0 5760 0 0 2985 0 2985 -5760 0 -5760 0 0
-2985z m4700 1365 l0 -190 130 0 130 0 0 190 0 190 85 0 85 0 0 -190 0 -190
86 0 85 0 -3 -237 c-3 -226 -4 -241 -27 -291 -47 -104 -169 -187 -290 -198
l-71 -7 0 -286 c0 -157 4 -292 8 -299 6 -9 16 -4 37 18 40 41 168 115 235 135
30 9 103 19 162 22 90 5 111 3 133 -11 24 -16 25 -20 25 -119 0 -182 -54 -314
-179 -437 -107 -106 -228 -169 -353 -185 l-57 -7 -3 -142 -3 -141 -80 0 -80 0
-3 336 -2 337 -23 6 c-12 3 -34 6 -48 6 -48 0 -162 41 -233 82 -96 56 -184
148 -233 245 -58 112 -73 169 -73 288 0 134 6 140 129 139 47 0 111 -6 141
-13 91 -21 213 -85 279 -147 l61 -56 0 114 0 115 -65 6 c-123 12 -229 88 -288
206 l-32 66 -4 227 -3 228 86 0 86 0 0 190 0 190 85 0 85 0 0 -190z m1678
-315 c42 -9 119 -30 170 -47 l92 -31 0 -95 c0 -86 -2 -93 -17 -87 -160 66
-290 95 -422 95 -205 0 -291 -74 -291 -253 0 -57 4 -71 33 -113 41 -62 107
-95 324 -163 90 -28 193 -65 229 -83 82 -40 149 -105 183 -178 24 -50 26 -66
25 -175 0 -144 -19 -202 -89 -282 -57 -64 -122 -105 -216 -134 -64 -19 -95
-22 -224 -22 -170 1 -299 22 -428 70 l-79 29 1 92 c0 51 0 94 1 96 0 3 31 -8
69 -24 210 -86 520 -116 632 -60 57 29 86 56 112 105 29 55 30 164 2 220 -35
71 -79 91 -412 195 -106 33 -215 90 -270 142 -17 17 -44 58 -60 92 -26 57 -28
69 -28 191 1 112 4 138 24 189 45 114 157 199 301 230 88 19 244 19 338 1z
m1662 -105 l0 -90 -230 0 -230 0 -2 -672 -3 -673 -97 -3 -98 -4 0 676 0 676
-230 0 -230 0 0 90 0 90 560 0 560 0 0 -90z m1220 5 l0 -85 -365 0 -365 0 0
-250 0 -251 310 3 310 3 0 -86 0 -86 -77 -7 c-42 -3 -181 -6 -310 -6 l-233 0
0 -250 0 -250 370 0 371 0 -3 -87 -3 -88 -465 0 -465 0 -3 763 -2 762 465 0
465 0 0 -85z m1094 57 c171 -64 245 -158 269 -343 19 -156 -12 -291 -89 -386
-93 -114 -188 -142 -511 -150 l-223 -6 0 -302 0 -302 -52 -7 c-29 -3 -74 -6
-100 -6 l-48 0 0 766 0 766 348 -4 c327 -4 350 -5 406 -26z m-8526 -457 c28
-12 32 -19 32 -51 0 -31 -3 -35 -17 -28 -10 4 -49 14 -88 22 -87 18 -139 7
-195 -44 -51 -46 -74 -115 -68 -198 12 -150 114 -231 257 -204 31 5 59 15 63
21 4 7 8 53 8 104 l0 92 -107 3 -108 3 -3 33 -3 32 145 0 146 0 0 -159 0 -159
-42 -17 c-90 -36 -228 -36 -298 0 -75 39 -124 119 -135 220 -19 177 64 321
201 345 60 10 168 3 212 -15z m522 -11 c50 -29 73 -66 78 -128 6 -74 -24 -137
-76 -161 -20 -10 -38 -19 -40 -20 -1 -1 29 -53 68 -115 38 -63 70 -117 70
-122 0 -4 -19 -8 -42 -8 l-43 1 -70 117 -70 117 -57 3 -58 3 0 -119 0 -120
-30 -4 c-17 -3 -32 -2 -35 0 -3 3 -5 136 -5 295 l0 290 138 -5 c114 -3 145 -8
172 -24z m578 -11 l3 -33 -139 0 -140 0 2 -92 1 -93 117 -3 c123 -3 131 -6
120 -54 -3 -16 -17 -18 -123 -18 l-119 0 0 -90 0 -89 138 -3 137 -3 3 -32 3
-33 -180 0 -181 0 0 290 0 290 178 -2 177 -3 3 -32z m477 2 l0 -30 -138 -3
-138 -3 3 -92 3 -92 118 -3 117 -3 0 -34 0 -35 -120 0 -120 0 0 -90 0 -89 138
-3 137 -3 3 -32 3 -33 -180 0 -181 0 0 290 0 290 178 -2 177 -3 0 -30z m222
16 c10 -11 74 -109 143 -219 l125 -199 5 216 5 216 35 0 35 0 3 -287 2 -288
-44 0 c-43 0 -44 1 -86 68 -23 37 -66 105 -95 152 -30 47 -67 108 -84 137 -17
28 -34 54 -38 56 -11 7 -12 1 -19 -220 l-6 -191 -27 -5 c-14 -3 -29 -3 -33 0
-5 2 -8 134 -8 294 l0 289 35 0 c21 0 41 -7 52 -19z m1651 -1746 c5 -77 9 -86
38 -75 86 33 164 -22 164 -115 0 -45 -25 -100 -54 -120 -27 -19 -96 -19 -123
0 -19 13 -22 13 -27 0 -3 -8 -12 -15 -21 -15 -13 0 -15 26 -15 186 0 171 1
185 18 182 12 -2 18 -14 20 -43z m2620 -122 l2 -162 28 -3 c16 -2 28 -10 30
-20 3 -15 -4 -18 -36 -18 -62 0 -67 12 -70 187 -2 85 -1 161 2 169 3 9 14 14
23 12 16 -3 18 -20 21 -165z m332 -18 c0 -155 -2 -185 -15 -185 -7 0 -18 7
-23 16 -8 14 -10 14 -21 0 -17 -20 -83 -21 -121 -1 -37 19 -65 90 -55 141 10
56 62 104 112 104 21 0 49 -7 61 -16 l22 -15 0 64 c0 66 4 77 27 77 10 0 13
-38 13 -185z m-4190 131 c0 -24 0 -24 -95 -21 l-95 4 0 -54 0 -55 76 0 c66 0
75 -2 72 -17 -3 -15 -16 -19 -75 -21 l-72 -3 -3 -72 c-2 -59 -6 -72 -20 -75
-17 -3 -18 10 -18 167 l0 171 115 0 c115 0 115 0 115 -24z m1868 -23 c3 -30 6
-32 45 -35 30 -2 43 -8 45 -20 3 -15 -4 -18 -43 -18 l-46 0 3 -87 3 -88 39 0
c24 0 41 -5 44 -14 12 -35 -85 -44 -118 -11 -17 17 -20 33 -20 110 l0 90 -26
0 c-33 0 -30 33 4 38 17 3 22 10 22 31 0 53 43 57 48 4z m210 -1 c3 -29 6 -31
45 -34 30 -2 43 -8 45 -20 3 -13 -6 -17 -40 -20 l-43 -3 0 -85 0 -85 39 0 c24
0 41 -5 44 -14 12 -34 -85 -44 -118 -11 -17 17 -20 33 -20 110 l0 90 -26 0
c-33 0 -30 33 4 38 15 2 22 10 22 26 0 25 19 48 35 43 5 -2 11 -18 13 -35z
m-1826 -61 c29 -25 32 -35 36 -95 4 -65 4 -66 -32 -102 -35 -35 -39 -36 -92
-32 -80 7 -107 36 -112 123 -4 63 -3 66 31 100 31 31 41 35 86 35 42 0 56 -5
83 -29z m148 14 c0 -19 7 -19 27 1 10 9 29 14 52 12 48 -4 49 -30 1 -39 -56
-12 -70 -38 -70 -136 0 -82 -1 -84 -22 -81 -22 3 -23 7 -26 117 -1 63 0 121 2
128 7 18 36 16 36 -2z m504 -6 c24 -19 26 -26 26 -104 0 -74 2 -86 20 -95 11
-6 20 -17 20 -25 0 -20 -54 -20 -70 0 -12 14 -15 14 -30 0 -22 -20 -89 -19
-118 1 -28 19 -30 76 -4 102 10 10 46 24 80 31 51 10 60 15 55 29 -17 47 -63
57 -103 22 -26 -23 -43 -22 -48 3 -5 24 55 57 104 57 27 0 51 -7 68 -21z m769
10 c31 -14 57 -59 57 -98 0 -34 -2 -35 -129 -36 -63 0 -73 -13 -37 -50 30 -30
78 -33 105 -6 13 13 23 16 35 9 25 -14 19 -36 -16 -54 -64 -33 -137 -16 -174
41 -36 55 -13 168 40 194 28 13 90 13 119 0z m716 -4 c27 -14 43 -41 55 -97
l6 -28 -93 0 c-52 0 -96 -3 -100 -6 -9 -10 20 -61 38 -68 28 -10 60 -7 81 9
24 18 54 19 54 3 -1 -35 -42 -58 -105 -58 -40 0 -52 5 -81 34 -31 31 -34 39
-34 96 0 57 3 65 34 96 28 28 42 34 75 34 23 0 55 -7 70 -15z m157 1 c5 -12 9
-12 32 0 41 21 82 18 82 -6 0 -15 -7 -20 -25 -20 -14 0 -37 -11 -50 -25 -23
-22 -25 -32 -25 -110 0 -84 -1 -86 -22 -83 -22 3 -23 7 -26 117 -1 63 0 121 2
128 7 17 25 17 32 -1z m390 -86 c34 -104 32 -105 69 12 39 122 65 117 110 -21
17 -53 30 -79 35 -70 4 8 18 51 30 97 21 72 26 82 47 82 13 0 23 -4 23 -9 0
-16 -81 -236 -91 -246 -18 -18 -41 10 -69 84 -19 52 -29 69 -33 57 -4 -10 -11
-15 -16 -12 -4 3 -17 -22 -28 -56 -20 -64 -44 -91 -63 -72 -11 11 -90 226 -90
245 0 6 10 9 23 7 18 -2 27 -19 53 -98z m545 84 c34 -17 59 -66 59 -114 0
-102 -91 -159 -184 -115 -36 18 -66 69 -66 116 0 40 33 103 62 116 34 17 95
15 129 -3z m165 1 c5 -13 8 -13 27 0 12 8 36 15 54 15 26 0 33 -4 33 -19 0
-14 -10 -20 -40 -25 -52 -8 -60 -26 -60 -131 0 -84 -1 -86 -22 -83 -22 3 -23
7 -26 131 -2 110 0 127 13 127 9 0 18 -7 21 -15z"/>
<path d="M4532 3863 c4 -149 16 -185 80 -230 l41 -28 176 0 c165 0 179 1 219
23 34 18 49 35 68 75 21 46 24 66 24 170 l0 117 -306 0 -306 0 4 -127z"/>
<path d="M4310 3232 c0 -32 31 -126 57 -172 39 -68 121 -148 188 -182 52 -27
142 -58 169 -58 31 0 -42 202 -97 266 -35 42 -160 124 -210 139 -85 25 -107
26 -107 7z"/>
<path d="M5252 2834 c-142 -38 -275 -171 -310 -309 -24 -97 -24 -95 1 -95 27
0 122 31 158 51 55 32 136 105 167 150 39 57 72 145 72 189 0 35 -8 36 -88 14z"/>
<path d="M9888 3842 l-88 -3 0 -274 0 -275 168 0 c92 0 196 5 232 10 167 27
247 150 220 339 -11 79 -44 131 -107 168 -45 26 -57 28 -193 33 -80 3 -184 4
-232 2z"/>
<path d="M2110 3374 l0 -97 88 5 c49 3 98 10 109 16 46 25 52 127 10 157 -15
11 -49 15 -114 15 l-93 0 0 -96z"/>
<path d="M5312 1660 c-27 -25 -30 -103 -6 -138 22 -32 76 -30 103 4 63 80 -25
201 -97 134z"/>
<path d="M8063 1654 c-22 -22 -25 -32 -20 -72 6 -53 33 -82 77 -82 41 0 65 33
65 90 0 85 -66 120 -122 64z"/>
<path d="M4172 1673 c-45 -18 -51 -128 -9 -158 34 -24 84 -19 102 9 33 50 21
134 -20 150 -19 7 -54 7 -73 -1z"/>
<path d="M4876 1568 c-53 -11 -68 -25 -55 -49 20 -38 90 -19 103 28 9 28 0 32
-48 21z"/>
<path d="M5608 1663 c-34 -41 -32 -43 41 -43 55 0 71 3 71 14 0 39 -84 60
-112 29z"/>
<path d="M6322 1664 c-42 -29 -28 -44 43 -44 39 0 65 4 65 11 0 5 -5 7 -12 3
-7 -4 -8 -3 -4 5 22 35 -50 54 -92 25z"/>
<path d="M7085 1629 c-4 -6 -5 -12 -2 -15 2 -3 7 2 10 11 7 17 1 20 -8 4z"/>
<path d="M7402 1657 c-29 -31 -30 -95 -1 -131 46 -58 129 -19 129 61 0 82 -77
124 -128 70z"/>
</g>
</svg>
