<svg width="500" height="500" viewBox="0 0 500 500" fill="none" xmlns="http://www.w3.org/2000/svg">
<circle cx="250" cy="250" r="250" fill="white"/>
<path d="M175.745 27.3877C172.384 52.9671 164.076 71.9182 150.073 86.2949C138.03 98.8045 122.253 107.58 105.729 111.127C96.2065 113.088 76.9753 113.181 66.0527 111.127C61.7584 110.381 58.1175 109.82 57.9308 110.007C57.8375 110.101 59.9846 114.768 62.7853 120.463C75.2016 145.482 77.4421 168.634 69.4135 191.973C64.7458 205.603 59.5179 214.098 49.2488 224.461C39.8199 234.076 30.1109 240.891 18.8149 246.026C15.0807 247.8 12 249.387 12 249.667C12 249.947 15.1741 251.627 19.0016 253.401C40.7534 263.297 58.771 281.034 66.8929 300.452C77.7222 326.498 76.4152 351.424 62.7853 378.871C59.9846 384.565 57.8375 389.233 57.9308 389.42C58.1175 389.513 61.5717 389.046 65.6793 388.206C75.855 386.152 96.0198 386.152 105.729 388.206C127.481 392.967 148.205 406.971 159.875 425.175C167.717 437.124 173.038 452.435 175.278 468.492C175.745 472.599 176.399 476.053 176.585 476.24C176.772 476.427 178.359 474.746 180.226 472.506C184.801 466.905 197.964 455.889 205.246 451.501C212.341 447.207 221.489 443.286 226.064 442.352C227.931 442.072 229.611 441.512 229.798 441.139C230.171 440.578 227.838 427.975 227.277 427.415C227.184 427.322 223.45 428.349 218.969 429.843C209.26 432.923 197.217 438.898 190.682 443.846L185.921 447.393L183.774 441.139C181.16 433.577 176.305 423.868 171.824 416.866C167.343 409.958 151.099 393.807 144.004 389.233C127.107 378.217 107.503 371.962 89.765 371.962C85.4706 371.962 81.9231 371.776 81.9231 371.682C81.9231 371.495 82.7633 368.882 83.7902 365.801C93.3125 338.261 88.0846 303.159 70.4404 277.3C65.4926 270.018 54.4767 258.536 47.9418 253.868C45.1411 251.814 42.7139 249.947 42.7139 249.667C42.7139 249.387 45.1411 247.52 47.9418 245.466C54.4767 240.798 65.4926 229.315 70.4404 222.034C88.0846 196.174 93.3125 161.073 83.7902 133.533C82.7633 130.452 81.9231 127.838 81.9231 127.651C81.9231 127.558 85.3773 127.371 89.6716 127.371C107.876 127.278 127.014 121.21 144.004 110.101C151.099 105.526 167.343 89.3756 171.824 82.4674C176.305 75.4657 181.16 65.6634 183.774 58.1016L185.921 51.9402L189.282 54.4608C195.07 59.1285 207.299 65.4767 215.608 68.4641C228.958 73.1318 238.2 74.4388 253.697 73.8787C274.328 73.2252 289.265 68.5574 305.509 57.8215L314.285 52.0335L315.685 56.7946C319.699 70.4245 330.155 87.0418 341.824 98.2444C360.402 116.075 382.807 125.878 407.547 127.091C416.789 127.558 418.002 127.838 417.536 129.145C417.162 129.985 415.855 134.653 414.548 139.507C405.586 174.142 417.162 213.538 443.675 238.371C447.129 241.545 451.517 245.186 453.571 246.586C455.531 247.893 457.212 249.293 457.212 249.667C457.212 250.04 455.531 251.441 453.571 252.747C451.517 254.148 447.129 257.789 443.675 260.963C417.162 285.795 405.586 325.191 414.548 359.826C415.855 364.681 417.162 369.348 417.536 370.188C418.002 371.495 416.789 371.776 407.547 372.242C388.315 373.176 371.418 378.871 354.987 389.98C346.959 395.488 334.823 407.437 329.315 415.466C324.274 422.748 317.179 436.844 315.311 443.566L314.098 447.393L308.497 443.192C302.055 438.525 290.666 432.83 281.984 429.936C273.582 427.135 272.555 427.322 271.901 431.43C271.528 433.39 270.874 436.377 270.501 438.058C269.941 440.205 270.034 441.232 270.781 441.512C289.919 447.113 301.028 453.742 315.592 468.305C320.073 472.786 323.713 476.147 323.713 475.773C323.713 475.4 324.367 471.106 325.114 466.251C330.155 433.017 346.679 409.118 373.659 395.488C391.583 386.432 415.575 383.912 437.234 388.766C439.661 389.326 441.715 389.606 441.901 389.42C442.088 389.233 439.941 384.565 437.14 378.871C427.991 360.48 424.257 342.182 426.218 325.751C427.525 315.762 430.885 304.093 434.993 295.878C443.768 278.42 461.413 262.083 481.111 253.214C487.739 250.227 489.606 248.733 486.618 248.733C485.778 248.733 482.511 247.426 479.337 245.839C455.998 233.983 434.9 209.431 428.645 186.652C426.311 178.063 425.844 156.591 427.805 146.789C429.858 136.427 432.939 127.838 438.074 118.222C440.408 113.835 442.181 110.194 441.995 110.007C441.901 109.82 438.167 110.381 433.873 111.127C422.95 113.181 403.719 113.088 394.197 111.127C379.913 108.047 367.684 101.885 355.361 91.5228C338.09 76.9594 327.914 56.0478 324.18 27.2943L323.62 23L315.965 30.6551C296.08 50.7265 274.889 60.1554 250.056 60.1554C225.317 60.1554 204.405 50.9132 184.521 31.2153L176.305 23.0934L175.745 27.3877Z" fill="#DA9D00"/>
<path d="M231.292 88.8156C209.166 91.1495 182 100.952 162.862 113.275L155.58 118.036L159.595 123.357C161.742 126.344 163.609 128.958 163.796 129.145C163.889 129.332 166.783 127.745 170.144 125.598C185.641 115.795 204.125 108.42 222.236 104.779C236.333 101.979 261.725 101.792 275.635 104.406C336.69 115.795 383.461 162.38 395.224 223.527C397.838 236.97 397.557 264.417 394.757 277.673C384.955 323.978 356.761 361.04 315.778 381.485C274.422 402.209 225.13 402.209 184.054 381.485C127.854 353.198 95.6464 292.61 103.862 230.809C108.156 198.601 121.412 170.968 144.378 146.789L153.06 137.64L148.672 132.506L144.378 127.371L140.177 130.919C137.843 132.786 133.642 137.08 130.655 140.348C109.556 164.247 96.86 189.826 90.6052 221.193C89.2982 227.728 88.9248 234.17 88.9248 250.134C88.9248 268.991 89.2048 271.605 91.5387 282.715C103.021 336.394 140.27 380.084 191.616 400.342C210.38 407.811 228.491 411.172 249.869 411.172C294.12 411.172 333.889 394.554 364.976 363C395.597 331.913 411.467 293.17 411.467 249.667C411.467 199.442 388.969 153.137 349.386 122.237C320.073 99.3648 286.465 87.9754 249.683 88.3488C241.374 88.3488 233.065 88.6289 231.292 88.8156Z" fill="#C78F00"/>
<path d="M236.426 130.732C207.019 135.213 185.734 145.669 165.85 165.554C148.299 183.104 137.936 202.056 132.708 226.328C130.281 237.437 130.281 261.896 132.708 273.006C137.936 297.278 148.299 316.229 165.85 333.78C188.255 356.185 213.834 367.481 245.295 368.788C276.849 370.189 306.723 359.266 330.248 338.074L335.29 333.5L330.622 329.019C328.101 326.498 325.674 324.444 325.207 324.351C324.834 324.351 322.313 326.312 319.606 328.645C293.653 352.078 255.471 360.666 221.303 350.957C165.57 334.994 132.802 276.46 148.672 221.193C159.688 182.638 190.589 154.351 230.825 145.856C233.906 145.296 242.494 144.735 249.963 144.735C257.431 144.735 266.02 145.296 269.101 145.856C316.338 155.845 349.946 192.72 354.801 240.145C356.014 252.187 354.987 264.79 351.72 277.207C349.573 285.422 342.385 301.292 337.81 307.921C336.223 310.161 334.916 312.402 334.916 312.868C335.009 313.242 337.343 315.389 340.331 317.536L345.652 321.364L348.639 317.069C356.481 306.147 364.043 288.129 367.31 272.726C369.644 261.896 369.644 237.251 367.217 226.328C361.989 202.056 351.627 183.104 334.076 165.554C316.432 147.91 297.667 137.734 273.302 132.413C266.487 130.919 242.308 129.892 236.426 130.732Z" fill="black"/>
<path d="M242.028 427.695C242.214 429.189 242.681 432.27 242.961 434.697L243.521 439.178H250.056C255.564 439.178 256.498 438.898 256.591 437.498C256.591 436.658 256.964 433.483 257.338 430.496L257.991 425.175H249.776H241.654L242.028 427.695Z" fill="#DA9D00"/>
<path d="M228.938 339C228.078 337.761 227.215 336.585 226.717 335.27C225.944 333.229 227.168 331.389 227.787 329.565C230.006 323.028 232.393 316.549 234.689 310.038C239.413 296.641 244.126 283.24 248.81 269.828C249.062 269.108 249.009 268.282 249.118 267.33C246.752 267.33 244.609 267.33 242.467 267.33C237.691 267.33 232.915 267.361 228.139 267.324C215.405 267.225 202.672 267.058 189.938 267.015C187.557 267.008 185.943 266.132 185.031 264.003C184.186 262.028 184.895 260.303 186.145 258.76C191.71 251.893 197.275 245.026 202.874 238.186C208.33 231.519 213.856 224.909 219.298 218.23C224.081 212.361 228.765 206.41 233.541 200.535C237.418 195.766 241.389 191.073 245.28 186.315C249.748 180.852 254.163 175.345 258.623 169.875C260.948 167.025 263.307 164.203 265.686 161.398C266.084 160.929 266.665 160.615 267.198 160.115C268.41 160 269.585 160 270.92 160C274.343 162.025 274.301 164.7 273.425 167.203C268.792 180.447 264.173 193.696 259.505 206.928C256.623 215.097 253.662 223.237 250.682 231.543C251.217 231.601 251.539 231.663 251.861 231.666C267.563 231.787 283.265 231.909 298.966 232.016C302.926 232.042 306.887 232.041 310.846 232.01C312.783 231.995 314.288 232.88 315.079 234.499C315.841 236.06 315.919 237.87 314.764 239.388C311.814 243.263 308.828 247.112 305.816 250.939C302.271 255.443 298.703 259.929 295.108 264.394C291.939 268.329 288.718 272.223 285.524 276.137C281.931 280.538 278.355 284.953 274.747 289.342C271.355 293.469 267.918 297.559 264.525 301.686C260.918 306.075 257.366 310.51 253.743 314.886C250.077 319.313 246.334 323.677 242.662 328.099C240.17 331.1 237.775 334.182 235.26 337.163C234.691 337.838 233.804 338.244 233.018 338.887C231.682 339 230.391 339 228.938 339Z" fill="#94C83D"/>
<path d="M292.647 177.729C292.782 177.809 292.918 177.889 293.099 178.183C293.535 178.52 293.924 178.644 294.314 178.769C294.468 178.85 294.623 178.931 294.826 179.219C296.745 180.637 298.616 181.848 300.487 183.059C302.08 184.262 303.793 185.337 305.245 186.691C312.008 192.994 317.97 199.951 322.458 208.101C325.877 214.309 328.632 220.785 330.213 227.693C331.113 231.627 331.676 235.645 332.236 239.648C332.617 242.375 332.98 245.147 332.901 247.886C332.789 251.781 332.262 255.664 331.917 259.553C331.43 265.033 329.973 270.297 328.163 275.453C325.18 283.954 320.912 291.782 315.268 298.818C308.403 307.375 300.284 314.436 290.659 319.822C283.589 323.779 276.065 326.399 268.304 328.469C266.081 329.062 263.829 327.226 263.31 324.963C262.963 323.446 262.582 321.904 263.796 320.843C264.889 319.887 266.328 319.133 267.738 318.764C277.318 316.258 286.211 312.261 294.101 306.298C305.169 297.932 313.294 287.265 318.321 274.264C320.635 268.278 322.263 262.159 322.832 255.758C323.529 247.915 323.258 240.174 321.507 232.431C319.088 221.731 314.546 212.135 307.801 203.528C301.915 196.016 294.799 189.951 286.559 185.162C285.609 184.61 284.857 183.718 284.128 182.833C284.315 181.593 284.386 180.502 284.475 179.156C284.74 178.935 285.393 178.391 286.065 177.831C285.812 177.42 285.605 177.082 285.397 176.744C285.554 176.64 285.712 176.536 286.098 176.478C288.015 176.72 289.702 176.915 291.389 177.11C291.389 177.11 291.361 177.124 291.389 177.249C291.827 177.493 292.237 177.611 292.647 177.729Z" fill="#5E9641"/>
<path d="M177.734 245.939C177.287 254.936 178.674 263.504 181.569 271.831C184.304 279.696 188.209 286.903 193.454 293.429C198.628 299.865 204.693 305.233 211.579 309.719C212.913 310.588 214.36 311.281 215.704 312.135C217.398 313.211 218.524 315.42 218.199 316.83C217.65 319.212 216.021 321.096 213.736 321.044C212.151 321.007 210.46 320.172 209.042 319.319C202.484 315.377 196.357 310.851 191.056 305.29C186.338 300.341 182.056 295.027 178.959 288.916C176.471 284.007 174.121 278.989 172.224 273.83C170.221 268.383 168.972 262.685 168.631 256.835C168.46 253.909 167.934 250.982 168.007 248.067C168.098 244.405 168.654 240.756 168.98 237.099C169.479 231.503 170.947 226.138 172.82 220.868C175.979 211.984 180.513 203.891 186.433 196.525C192.115 189.456 198.822 183.565 206.433 178.736C214.318 173.734 222.921 170.316 232.014 168.175C235.193 167.427 237.895 170.885 237.07 174.299C236.391 177.111 234.086 177.582 231.954 178.12C222.024 180.627 213.147 185.149 205.121 191.488C195.933 198.745 188.951 207.703 184.062 218.298C181.41 224.046 179.618 230.104 178.503 236.319C177.948 239.417 177.972 242.619 177.734 245.939Z" fill="#5E9641"/>
</svg>
